<svg width="90" height="45" viewBox="0 0 90 45" fill="none" xmlns="http://www.w3.org/2000/svg">
<mask id="mask0_99_3403" style="mask-type:luminance" maskUnits="userSpaceOnUse" x="0" y="0" width="45" height="45">
<path d="M0 -1.14441e-05L0 45H45V-1.14441e-05H0Z" fill="white"/>
</mask>
<g mask="url(#mask0_99_3403)">
<path d="M35.321 42.1875C22.0331 42.1875 9.78562 34.9966 3.31047 23.3931C3.00068 22.8381 3.00068 22.1619 3.31047 21.6069C9.78562 10.0034 22.0331 2.81249 35.321 2.81249H44.9996V42.1875H35.321Z" fill="#D1D2DE"/>
<path d="M30.9365 22.5C30.9365 17.8401 27.1589 14.0625 22.499 14.0625C17.8391 14.0625 14.0615 17.8401 14.0615 22.5C14.0615 27.1599 17.8391 30.9375 22.499 30.9375C27.1589 30.9375 30.9365 27.1599 30.9365 22.5Z" fill="black" fill-opacity="0.1"/>
</g>
<mask id="mask1_99_3403" style="mask-type:luminance" maskUnits="userSpaceOnUse" x="45" y="0" width="46" height="45">
<path d="M45.001 -1.14441e-05V45H90.001V-1.14441e-05H45.001Z" fill="white"/>
</mask>
<g mask="url(#mask1_99_3403)">
<path d="M45.001 42.1875V2.81249H68.9072C79.7803 2.81249 88.5947 11.6269 88.5947 22.5C88.5947 33.3731 79.7803 42.1875 68.9072 42.1875H45.001Z" fill="#D1D2DE"/>
<path d="M75.9385 22.5C75.9385 17.8401 72.1609 14.0625 67.501 14.0625C62.8411 14.0625 59.0635 17.8401 59.0635 22.5C59.0635 27.1599 62.8411 30.9375 67.501 30.9375C72.1609 30.9375 75.9385 27.1599 75.9385 22.5Z" fill="black" fill-opacity="0.1"/>
</g>
</svg>
